<svg xmlns="http://www.w3.org/2000/svg" enable-background="new 0 0 229.35 211.723" viewBox="0 0 229.35 211.723" id="circular-saw"><path d="M193.128,98.673l2.764-2.764h-3.88l2.704-4.683l-3.748,1.004l1.4-5.224l-3.36,1.94v-5.408l-2.744,2.744l-1.4-5.224
		l-1.94,3.36l-2.704-4.683l-1.004,3.748l-3.824-3.824v3.88l-4.683-2.704l1.004,3.748l-5.224-1.4l1.94,3.36h-5.408l2.744,2.744
		l-5.224,1.4l3.36,1.94l-4.683,2.704l3.748,1.004l-2.338,2.338H146.35v0H95.788c-0.207,0.772-0.496,1.533-0.895,2.265
		c-1.807,3.312-5.274,5.369-9.05,5.369c-1.712,0-3.415-0.435-4.926-1.259L69.23,98.674h-1.723v6.776l-9.44-5.532
		c-0.464,1.115-0.91,2.233-1.318,3.354l30.084,26.806c4.471,3.983,6.098,10.214,4.146,15.875l-18.999,55.098
		c0.75,5.052,4.558,9.335,9.852,10.416c0.845,0.173,1.686,0.256,2.515,0.256c5.815-0.001,11.025-4.081,12.234-10.001l12.666-62
		c1.07-5.241-1.313-10.582-5.928-13.287l-28.036-16.429h62.214v100.547h80.038V110.007h11.814V98.673H193.128z M165.204,98.035
		c0-6.8,5.513-12.313,12.313-12.313s12.313,5.513,12.313,12.313c0,0.216-0.021,0.426-0.032,0.639h-2.063
		c0.013-0.212,0.032-0.423,0.032-0.639c0-5.661-4.589-10.25-10.25-10.25s-10.25,4.589-10.25,10.25c0,0.216,0.019,0.427,0.032,0.639
		h-2.063C165.226,98.46,165.204,98.25,165.204,98.035z M172.642,98.035c0-2.692,2.183-4.875,4.875-4.875s4.875,2.183,4.875,4.875
		c0,0.219-0.036,0.428-0.064,0.639h-9.621C172.678,98.462,172.642,98.253,172.642,98.035z M147.952,131.673
		c-1.933,0-3.5-1.567-3.5-3.5s1.567-3.5,3.5-3.5c1.933,0,3.5,1.567,3.5,3.5S149.885,131.673,147.952,131.673z M147.952,119.673
		c-1.933,0-3.5-1.567-3.5-3.5s1.567-3.5,3.5-3.5c1.933,0,3.5,1.567,3.5,3.5S149.885,119.673,147.952,119.673z M174.257,152.049
		c-6.151-6.151-6.151-16.123,0-22.274c5.773-5.773,14.911-6.126,21.098-1.063l4.604-4.604l2.239,2.239l-4.604,4.604
		c5.063,6.187,4.71,15.325-1.063,21.098C190.38,158.2,180.407,158.2,174.257,152.049z M207.223,201.757h-18.25v-32.75h18.25V201.757
		z"></path><path d="M177.527,133.046c-4.345,4.345-4.345,11.389,0,15.733c4.345,4.345,11.389,4.345,15.733,0
		c4.345-4.345,4.345-11.388,0-15.733C188.915,128.701,181.872,128.701,177.527,133.046z M187.397,142.916
		c-1.107,1.106-2.9,1.106-4.007,0c-1.107-1.107-1.107-2.9,0-4.007s2.9-1.107,4.007,0
		C188.503,140.015,188.503,141.809,187.397,142.916z"></path><rect width="10" height="40.75" x="123.868" y="113.84"></rect><rect width="13.5" height="8.667" x="191.348" y="171.84"></rect><path d="M138.05 42.316c2.701-2.894-2.147-11.809-10.827-19.911-.298-.278-.598-.54-.897-.809-.229-5.71-2.615-11.336-7.123-15.544-9.084-8.479-23.322-7.988-31.801 1.095-8.48 9.085-7.988 23.322 1.095 31.801 8.332 7.777 20.983 7.987 29.566.964-1.408-1.456-2.82-3.072-4.191-4.819-7.199-9.17-10.612-18.529-7.787-21.181-1.247 3.569 3.458 11.598 11.357 18.971 5.961 5.564 12.179 9.297 16.364 10.155C135.716 43.429 137.204 43.222 138.05 42.316zM189.801 79.593c.018-.003 2.236-.173 3.805 1.179 1.017.877 1.579 2.235 1.673 4.039.028.534.47.948.998.948.018 0 .035 0 .053-.001.552-.029.976-.499.947-1.05-.124-2.369-.919-4.203-2.365-5.45-2.23-1.925-5.175-1.667-5.302-1.656-.55.053-.952.542-.899 1.091C188.762 79.242 189.258 79.644 189.801 79.593z"></path><path d="M200.678 85.04c.004 0 .009 0 .014 0 .552-.008.994-.461.986-1.014-.048-3.534-1.108-6.307-3.153-8.24-3.113-2.944-7.345-2.801-7.517-2.792-.552.023-.98.489-.957 1.041.023.552.514.972 1.041.957.036-.001 3.555-.121 6.059 2.247 1.637 1.548 2.487 3.841 2.527 6.814C199.686 84.601 200.132 85.04 200.678 85.04zM158.479 84.914c.008 0 .016 0 .023 0 .54 0 .985-.433 1-.975 0-.022.078-2.252 1.619-3.66.987-.901 2.405-1.298 4.191-1.188.542.035 1.025-.384 1.061-.936.034-.551-.384-1.026-.936-1.061-2.362-.148-4.28.432-5.685 1.726-2.168 1.998-2.248 4.953-2.251 5.077C157.492 84.449 157.929 84.902 158.479 84.914z"></path><path d="M154.01 83.052c.024.001.049.002.073.002.52 0 .958-.401.996-.928.003-.035.286-3.545 2.925-5.762 1.726-1.449 4.093-2.033 7.06-1.731.559.061 1.039-.345 1.096-.894.056-.549-.345-1.04-.895-1.096-3.509-.356-6.392.379-8.547 2.189-3.279 2.755-3.62 6.971-3.633 7.149C153.045 82.533 153.459 83.012 154.01 83.052zM35.455 76.205c-.638-2.918.021-5.965 1.808-8.36l17.667-23.667c1.935-2.592 5.021-4.139 8.259-4.139 2.233 0 4.362.708 6.156 2.047 2.205 1.646 3.637 4.051 4.032 6.774s-.293 5.437-1.938 7.641l-10.563 14.15 8.294 4.524c1.499-2.28 2.981-4.476 4.407-6.571l2.976 9.468c.163.52.384 1.013.645 1.482l1.137.62h38.942c-.079-.034-.153-.074-.233-.106l-26.37-10.431L82.53 43.73c-.674-2.749-2.078-5.148-4.315-6.822-7.045-5.271-20.25-5.792-30.566 5.755-11.36 12.868-17.745 22.864-23.055 37.511h12.673C36.397 79.009 35.772 77.66 35.455 76.205zM85.304 131.796l-31.236-27.832c.602-1.771 1.287-3.536 2.027-5.29H20.235c.065 1.766.317 3.373.742 4.825.292 3.023 1.667 5.949 4.113 8.128l37.367 33.296-17.286 50.13c-2.25 6.526 1.216 13.642 7.742 15.892 1.35.465 2.725.686 4.076.686 5.185 0 10.031-3.251 11.816-8.429l20-58C90.449 140.437 89.068 135.15 85.304 131.796zM90.783 86.965c3.314 1.807 5.228 5.184 5.349 8.709h47.219v-12.5H83.833L90.783 86.965z"></path><polygon points="63.73 95.674 40.814 83.174 0 83.174 0 95.674"></polygon><path d="M82.019,103.03c1.217,0.664,2.529,0.979,3.824,0.979c2.833,0,5.578-1.508,7.03-4.17c2.115-3.879,0.687-8.738-3.192-10.854
		L57.446,71.4l12.148-16.274c2.643-3.541,1.915-8.554-1.626-11.196c-3.541-2.643-8.553-1.917-11.196,1.625L39.106,69.221
		c-1.387,1.858-1.899,4.228-1.404,6.493s1.948,4.205,3.984,5.315L82.019,103.03z"></path></svg>